<svg xmlns="http://www.w3.org/2000/svg" viewBox="0 0 240 200" fill="none">
  <defs>
    <linearGradient id="chartGrad" x1="0%" y1="0%" x2="100%" y2="100%">
      <stop offset="0%" stop-color="#f5f5f4"/>
      <stop offset="100%" stop-color="#e7e5e4"/>
    </linearGradient>
    <linearGradient id="flowerGrad" x1="0%" y1="0%" x2="100%" y2="100%">
      <stop offset="0%" stop-color="#a78bfa"/>
      <stop offset="100%" stop-color="#7c3aed"/>
    </linearGradient>
  </defs>
  <!-- Chart paper background -->
  <rect x="40" y="35" width="160" height="140" rx="8" fill="white" stroke="#d6d3d1" stroke-width="2"/>
  <!-- Grid lines -->
  <line x1="60" y1="55" x2="60" y2="155" stroke="#e7e5e4" stroke-width="1"/>
  <line x1="80" y1="55" x2="80" y2="155" stroke="#e7e5e4" stroke-width="1"/>
  <line x1="100" y1="55" x2="100" y2="155" stroke="#e7e5e4" stroke-width="1"/>
  <line x1="120" y1="55" x2="120" y2="155" stroke="#e7e5e4" stroke-width="1"/>
  <line x1="140" y1="55" x2="140" y2="155" stroke="#e7e5e4" stroke-width="1"/>
  <line x1="160" y1="55" x2="160" y2="155" stroke="#e7e5e4" stroke-width="1"/>
  <line x1="180" y1="55" x2="180" y2="155" stroke="#e7e5e4" stroke-width="1"/>
  <line x1="55" y1="75" x2="185" y2="75" stroke="#e7e5e4" stroke-width="1"/>
  <line x1="55" y1="95" x2="185" y2="95" stroke="#e7e5e4" stroke-width="1"/>
  <line x1="55" y1="115" x2="185" y2="115" stroke="#e7e5e4" stroke-width="1"/>
  <line x1="55" y1="135" x2="185" y2="135" stroke="#e7e5e4" stroke-width="1"/>
  <!-- Bar chart outline (ghost) -->
  <rect x="68" y="110" width="14" height="45" rx="2" fill="#e7e5e4" opacity="0.6"/>
  <rect x="92" y="95" width="14" height="60" rx="2" fill="#e7e5e4" opacity="0.5"/>
  <rect x="116" y="125" width="14" height="30" rx="2" fill="#e7e5e4" opacity="0.6"/>
  <rect x="140" y="105" width="14" height="50" rx="2" fill="#e7e5e4" opacity="0.5"/>
  <rect x="164" y="85" width="14" height="70" rx="2" fill="#e7e5e4" opacity="0.4"/>
  <!-- Axes -->
  <line x1="55" y1="155" x2="185" y2="155" stroke="#a8a29e" stroke-width="2" stroke-linecap="round"/>
  <line x1="55" y1="55" x2="55" y2="155" stroke="#a8a29e" stroke-width="2" stroke-linecap="round"/>
  <!-- Small foxglove -->
  <rect x="190" y="130" width="2.5" height="40" rx="1.25" fill="#7c3aed" opacity="0.4"/>
  <path d="M191 135 C184 135 182 122 185 115 C187 110 189 108 191 108 C193 108 195 110 197 115 C200 122 198 135 191 135Z" fill="url(#flowerGrad)" opacity="0.65"/>
  <path d="M191 155 C184 155 182 143 185 136 C187 131 189 129 191 129 C193 129 195 131 197 136 C200 143 198 155 191 155Z" fill="url(#flowerGrad)" opacity="0.55"/>
</svg>